<mxfile host="app.diagrams.net" modified="2023-04-09T15:57:21.547Z" agent="5.0 (Windows NT 10.0; Win64; x64) AppleWebKit/537.36 (KHTML, like Gecko) Chrome/111.0.0.0 Safari/537.36" etag="ho6z875Ek-PqmSr7Z_sr" version="21.0.10" type="github">
  <diagram id="C5RBs43oDa-KdzZeNtuy" name="Page-1">
    <mxGraphModel dx="1290" dy="573" grid="1" gridSize="10" guides="1" tooltips="1" connect="1" arrows="1" fold="1" page="1" pageScale="1" pageWidth="827" pageHeight="1169" math="0" shadow="0">
      <root>
        <mxCell id="WIyWlLk6GJQsqaUBKTNV-0" />
        <mxCell id="WIyWlLk6GJQsqaUBKTNV-1" parent="WIyWlLk6GJQsqaUBKTNV-0" />
        <mxCell id="WIyWlLk6GJQsqaUBKTNV-2" value="" style="rounded=0;html=1;jettySize=auto;orthogonalLoop=1;fontSize=11;endArrow=block;endFill=0;endSize=8;strokeWidth=1;shadow=0;labelBackgroundColor=none;edgeStyle=orthogonalEdgeStyle;" parent="WIyWlLk6GJQsqaUBKTNV-1" source="WIyWlLk6GJQsqaUBKTNV-3" target="WIyWlLk6GJQsqaUBKTNV-6" edge="1">
          <mxGeometry relative="1" as="geometry" />
        </mxCell>
        <mxCell id="WIyWlLk6GJQsqaUBKTNV-3" value="&lt;font style=&quot;font-size: 18px;&quot;&gt;原材料&lt;/font&gt;" style="rounded=1;whiteSpace=wrap;html=1;fontSize=12;glass=0;strokeWidth=1;shadow=0;" parent="WIyWlLk6GJQsqaUBKTNV-1" vertex="1">
          <mxGeometry x="230" y="260" width="120" height="40" as="geometry" />
        </mxCell>
        <mxCell id="JPNgsBwNOuxJLD-IqFC_-4" style="edgeStyle=orthogonalEdgeStyle;rounded=0;orthogonalLoop=1;jettySize=auto;html=1;exitX=1;exitY=0.5;exitDx=0;exitDy=0;entryX=0;entryY=0.5;entryDx=0;entryDy=0;" edge="1" parent="WIyWlLk6GJQsqaUBKTNV-1" source="WIyWlLk6GJQsqaUBKTNV-6" target="WIyWlLk6GJQsqaUBKTNV-7">
          <mxGeometry relative="1" as="geometry" />
        </mxCell>
        <mxCell id="JPNgsBwNOuxJLD-IqFC_-6" style="edgeStyle=orthogonalEdgeStyle;rounded=0;orthogonalLoop=1;jettySize=auto;html=1;entryX=0.5;entryY=0;entryDx=0;entryDy=0;" edge="1" parent="WIyWlLk6GJQsqaUBKTNV-1" source="WIyWlLk6GJQsqaUBKTNV-6" target="WIyWlLk6GJQsqaUBKTNV-11">
          <mxGeometry relative="1" as="geometry">
            <mxPoint x="290" y="470" as="targetPoint" />
          </mxGeometry>
        </mxCell>
        <mxCell id="WIyWlLk6GJQsqaUBKTNV-6" value="&lt;font style=&quot;font-size: 18px;&quot;&gt;材料核验&lt;/font&gt;" style="rhombus;whiteSpace=wrap;html=1;shadow=0;fontFamily=Helvetica;fontSize=12;align=center;strokeWidth=1;spacing=6;spacingTop=-4;" parent="WIyWlLk6GJQsqaUBKTNV-1" vertex="1">
          <mxGeometry x="240" y="350" width="100" height="80" as="geometry" />
        </mxCell>
        <mxCell id="JPNgsBwNOuxJLD-IqFC_-11" style="edgeStyle=orthogonalEdgeStyle;rounded=0;orthogonalLoop=1;jettySize=auto;html=1;entryX=1;entryY=0.5;entryDx=0;entryDy=0;" edge="1" parent="WIyWlLk6GJQsqaUBKTNV-1" source="WIyWlLk6GJQsqaUBKTNV-7" target="WIyWlLk6GJQsqaUBKTNV-3">
          <mxGeometry relative="1" as="geometry">
            <mxPoint x="480" y="230" as="targetPoint" />
            <Array as="points">
              <mxPoint x="480" y="280" />
            </Array>
          </mxGeometry>
        </mxCell>
        <mxCell id="WIyWlLk6GJQsqaUBKTNV-7" value="&lt;font style=&quot;font-size: 18px;&quot;&gt;退回材料&lt;/font&gt;" style="rounded=1;whiteSpace=wrap;html=1;fontSize=12;glass=0;strokeWidth=1;shadow=0;" parent="WIyWlLk6GJQsqaUBKTNV-1" vertex="1">
          <mxGeometry x="420" y="370" width="120" height="40" as="geometry" />
        </mxCell>
        <mxCell id="JPNgsBwNOuxJLD-IqFC_-13" style="edgeStyle=orthogonalEdgeStyle;rounded=0;orthogonalLoop=1;jettySize=auto;html=1;" edge="1" parent="WIyWlLk6GJQsqaUBKTNV-1" source="WIyWlLk6GJQsqaUBKTNV-11" target="JPNgsBwNOuxJLD-IqFC_-12">
          <mxGeometry relative="1" as="geometry" />
        </mxCell>
        <mxCell id="WIyWlLk6GJQsqaUBKTNV-11" value="&lt;font style=&quot;font-size: 18px;&quot;&gt;原材料入库&lt;/font&gt;" style="rounded=1;whiteSpace=wrap;html=1;fontSize=12;glass=0;strokeWidth=1;shadow=0;" parent="WIyWlLk6GJQsqaUBKTNV-1" vertex="1">
          <mxGeometry x="230" y="480" width="120" height="40" as="geometry" />
        </mxCell>
        <mxCell id="JPNgsBwNOuxJLD-IqFC_-2" value="" style="ellipse;html=1;shape=startState;fillColor=#000000;strokeColor=#ff0000;" vertex="1" parent="WIyWlLk6GJQsqaUBKTNV-1">
          <mxGeometry x="275" y="180" width="30" height="30" as="geometry" />
        </mxCell>
        <mxCell id="JPNgsBwNOuxJLD-IqFC_-3" value="" style="edgeStyle=orthogonalEdgeStyle;html=1;verticalAlign=bottom;endArrow=open;endSize=8;strokeColor=#ff0000;rounded=0;entryX=0.5;entryY=0;entryDx=0;entryDy=0;" edge="1" source="JPNgsBwNOuxJLD-IqFC_-2" parent="WIyWlLk6GJQsqaUBKTNV-1" target="WIyWlLk6GJQsqaUBKTNV-3">
          <mxGeometry relative="1" as="geometry">
            <mxPoint x="290" y="240" as="targetPoint" />
          </mxGeometry>
        </mxCell>
        <mxCell id="JPNgsBwNOuxJLD-IqFC_-5" value="不合格" style="text;align=center;fontStyle=1;verticalAlign=middle;spacingLeft=3;spacingRight=3;strokeColor=none;rotatable=0;points=[[0,0.5],[1,0.5]];portConstraint=eastwest;html=1;" vertex="1" parent="WIyWlLk6GJQsqaUBKTNV-1">
          <mxGeometry x="320" y="370" width="80" height="26" as="geometry" />
        </mxCell>
        <mxCell id="JPNgsBwNOuxJLD-IqFC_-9" value="合格" style="text;align=center;fontStyle=1;verticalAlign=middle;spacingLeft=3;spacingRight=3;strokeColor=none;rotatable=0;points=[[0,0.5],[1,0.5]];portConstraint=eastwest;html=1;" vertex="1" parent="WIyWlLk6GJQsqaUBKTNV-1">
          <mxGeometry x="270" y="430" width="80" height="26" as="geometry" />
        </mxCell>
        <mxCell id="JPNgsBwNOuxJLD-IqFC_-15" style="edgeStyle=orthogonalEdgeStyle;rounded=0;orthogonalLoop=1;jettySize=auto;html=1;entryX=0.5;entryY=0;entryDx=0;entryDy=0;" edge="1" parent="WIyWlLk6GJQsqaUBKTNV-1" source="JPNgsBwNOuxJLD-IqFC_-12" target="JPNgsBwNOuxJLD-IqFC_-14">
          <mxGeometry relative="1" as="geometry" />
        </mxCell>
        <mxCell id="JPNgsBwNOuxJLD-IqFC_-12" value="&lt;font style=&quot;font-size: 18px;&quot;&gt;录入信息&lt;/font&gt;" style="rounded=1;whiteSpace=wrap;html=1;fontSize=12;glass=0;strokeWidth=1;shadow=0;" vertex="1" parent="WIyWlLk6GJQsqaUBKTNV-1">
          <mxGeometry x="230" y="565" width="120" height="40" as="geometry" />
        </mxCell>
        <mxCell id="JPNgsBwNOuxJLD-IqFC_-14" value="" style="ellipse;html=1;shape=endState;fillColor=#000000;strokeColor=#ff0000;" vertex="1" parent="WIyWlLk6GJQsqaUBKTNV-1">
          <mxGeometry x="275" y="650" width="30" height="30" as="geometry" />
        </mxCell>
        <mxCell id="JPNgsBwNOuxJLD-IqFC_-16" value="" style="rounded=0;html=1;jettySize=auto;orthogonalLoop=1;fontSize=11;endArrow=block;endFill=0;endSize=8;strokeWidth=1;shadow=0;labelBackgroundColor=none;edgeStyle=orthogonalEdgeStyle;" edge="1" parent="WIyWlLk6GJQsqaUBKTNV-1" source="JPNgsBwNOuxJLD-IqFC_-17" target="JPNgsBwNOuxJLD-IqFC_-20">
          <mxGeometry relative="1" as="geometry" />
        </mxCell>
        <mxCell id="JPNgsBwNOuxJLD-IqFC_-17" value="&lt;font style=&quot;font-size: 18px;&quot;&gt;原材料&lt;/font&gt;" style="rounded=1;whiteSpace=wrap;html=1;fontSize=12;glass=0;strokeWidth=1;shadow=0;" vertex="1" parent="WIyWlLk6GJQsqaUBKTNV-1">
          <mxGeometry x="680" y="260" width="120" height="40" as="geometry" />
        </mxCell>
        <mxCell id="JPNgsBwNOuxJLD-IqFC_-18" style="edgeStyle=orthogonalEdgeStyle;rounded=0;orthogonalLoop=1;jettySize=auto;html=1;exitX=1;exitY=0.5;exitDx=0;exitDy=0;entryX=0;entryY=0.5;entryDx=0;entryDy=0;" edge="1" parent="WIyWlLk6GJQsqaUBKTNV-1" source="JPNgsBwNOuxJLD-IqFC_-20" target="JPNgsBwNOuxJLD-IqFC_-22">
          <mxGeometry relative="1" as="geometry" />
        </mxCell>
        <mxCell id="JPNgsBwNOuxJLD-IqFC_-19" style="edgeStyle=orthogonalEdgeStyle;rounded=0;orthogonalLoop=1;jettySize=auto;html=1;entryX=0.5;entryY=0;entryDx=0;entryDy=0;" edge="1" parent="WIyWlLk6GJQsqaUBKTNV-1" source="JPNgsBwNOuxJLD-IqFC_-20" target="JPNgsBwNOuxJLD-IqFC_-24">
          <mxGeometry relative="1" as="geometry">
            <mxPoint x="740" y="470" as="targetPoint" />
          </mxGeometry>
        </mxCell>
        <mxCell id="JPNgsBwNOuxJLD-IqFC_-20" value="&lt;font style=&quot;font-size: 18px;&quot;&gt;材料核验&lt;/font&gt;" style="rhombus;whiteSpace=wrap;html=1;shadow=0;fontFamily=Helvetica;fontSize=12;align=center;strokeWidth=1;spacing=6;spacingTop=-4;" vertex="1" parent="WIyWlLk6GJQsqaUBKTNV-1">
          <mxGeometry x="690" y="350" width="100" height="80" as="geometry" />
        </mxCell>
        <mxCell id="JPNgsBwNOuxJLD-IqFC_-21" style="edgeStyle=orthogonalEdgeStyle;rounded=0;orthogonalLoop=1;jettySize=auto;html=1;entryX=1;entryY=0.5;entryDx=0;entryDy=0;" edge="1" parent="WIyWlLk6GJQsqaUBKTNV-1" source="JPNgsBwNOuxJLD-IqFC_-22" target="JPNgsBwNOuxJLD-IqFC_-17">
          <mxGeometry relative="1" as="geometry">
            <mxPoint x="930" y="230" as="targetPoint" />
            <Array as="points">
              <mxPoint x="930" y="280" />
            </Array>
          </mxGeometry>
        </mxCell>
        <mxCell id="JPNgsBwNOuxJLD-IqFC_-22" value="&lt;font style=&quot;font-size: 18px;&quot;&gt;退回材料&lt;/font&gt;" style="rounded=1;whiteSpace=wrap;html=1;fontSize=12;glass=0;strokeWidth=1;shadow=0;" vertex="1" parent="WIyWlLk6GJQsqaUBKTNV-1">
          <mxGeometry x="870" y="370" width="120" height="40" as="geometry" />
        </mxCell>
        <mxCell id="JPNgsBwNOuxJLD-IqFC_-23" style="edgeStyle=orthogonalEdgeStyle;rounded=0;orthogonalLoop=1;jettySize=auto;html=1;" edge="1" parent="WIyWlLk6GJQsqaUBKTNV-1" source="JPNgsBwNOuxJLD-IqFC_-24" target="JPNgsBwNOuxJLD-IqFC_-30">
          <mxGeometry relative="1" as="geometry" />
        </mxCell>
        <mxCell id="JPNgsBwNOuxJLD-IqFC_-33" style="edgeStyle=orthogonalEdgeStyle;rounded=0;orthogonalLoop=1;jettySize=auto;html=1;" edge="1" parent="WIyWlLk6GJQsqaUBKTNV-1" source="JPNgsBwNOuxJLD-IqFC_-24" target="JPNgsBwNOuxJLD-IqFC_-32">
          <mxGeometry relative="1" as="geometry" />
        </mxCell>
        <mxCell id="JPNgsBwNOuxJLD-IqFC_-24" value="&lt;font style=&quot;font-size: 18px;&quot;&gt;原材料出库&lt;/font&gt;" style="rounded=1;whiteSpace=wrap;html=1;fontSize=12;glass=0;strokeWidth=1;shadow=0;" vertex="1" parent="WIyWlLk6GJQsqaUBKTNV-1">
          <mxGeometry x="680" y="480" width="120" height="40" as="geometry" />
        </mxCell>
        <mxCell id="JPNgsBwNOuxJLD-IqFC_-25" value="" style="ellipse;html=1;shape=startState;fillColor=#000000;strokeColor=#ff0000;" vertex="1" parent="WIyWlLk6GJQsqaUBKTNV-1">
          <mxGeometry x="725" y="180" width="30" height="30" as="geometry" />
        </mxCell>
        <mxCell id="JPNgsBwNOuxJLD-IqFC_-26" value="" style="edgeStyle=orthogonalEdgeStyle;html=1;verticalAlign=bottom;endArrow=open;endSize=8;strokeColor=#ff0000;rounded=0;entryX=0.5;entryY=0;entryDx=0;entryDy=0;" edge="1" parent="WIyWlLk6GJQsqaUBKTNV-1" source="JPNgsBwNOuxJLD-IqFC_-25" target="JPNgsBwNOuxJLD-IqFC_-17">
          <mxGeometry relative="1" as="geometry">
            <mxPoint x="740" y="240" as="targetPoint" />
          </mxGeometry>
        </mxCell>
        <mxCell id="JPNgsBwNOuxJLD-IqFC_-27" value="不合格" style="text;align=center;fontStyle=1;verticalAlign=middle;spacingLeft=3;spacingRight=3;strokeColor=none;rotatable=0;points=[[0,0.5],[1,0.5]];portConstraint=eastwest;html=1;" vertex="1" parent="WIyWlLk6GJQsqaUBKTNV-1">
          <mxGeometry x="770" y="370" width="80" height="26" as="geometry" />
        </mxCell>
        <mxCell id="JPNgsBwNOuxJLD-IqFC_-28" value="合格" style="text;align=center;fontStyle=1;verticalAlign=middle;spacingLeft=3;spacingRight=3;strokeColor=none;rotatable=0;points=[[0,0.5],[1,0.5]];portConstraint=eastwest;html=1;" vertex="1" parent="WIyWlLk6GJQsqaUBKTNV-1">
          <mxGeometry x="720" y="430" width="80" height="26" as="geometry" />
        </mxCell>
        <mxCell id="JPNgsBwNOuxJLD-IqFC_-29" style="edgeStyle=orthogonalEdgeStyle;rounded=0;orthogonalLoop=1;jettySize=auto;html=1;entryX=0.5;entryY=0;entryDx=0;entryDy=0;" edge="1" parent="WIyWlLk6GJQsqaUBKTNV-1" source="JPNgsBwNOuxJLD-IqFC_-30" target="JPNgsBwNOuxJLD-IqFC_-31">
          <mxGeometry relative="1" as="geometry" />
        </mxCell>
        <mxCell id="JPNgsBwNOuxJLD-IqFC_-30" value="&lt;font style=&quot;font-size: 18px;&quot;&gt;删除库存&lt;/font&gt;" style="rounded=1;whiteSpace=wrap;html=1;fontSize=12;glass=0;strokeWidth=1;shadow=0;" vertex="1" parent="WIyWlLk6GJQsqaUBKTNV-1">
          <mxGeometry x="680" y="565" width="120" height="40" as="geometry" />
        </mxCell>
        <mxCell id="JPNgsBwNOuxJLD-IqFC_-31" value="" style="ellipse;html=1;shape=endState;fillColor=#000000;strokeColor=#ff0000;" vertex="1" parent="WIyWlLk6GJQsqaUBKTNV-1">
          <mxGeometry x="725" y="650" width="30" height="30" as="geometry" />
        </mxCell>
        <mxCell id="JPNgsBwNOuxJLD-IqFC_-32" value="&lt;font style=&quot;font-size: 18px;&quot;&gt;企业接收&lt;/font&gt;" style="rounded=1;whiteSpace=wrap;html=1;fontSize=12;glass=0;strokeWidth=1;shadow=0;" vertex="1" parent="WIyWlLk6GJQsqaUBKTNV-1">
          <mxGeometry x="870" y="480" width="120" height="40" as="geometry" />
        </mxCell>
        <mxCell id="JPNgsBwNOuxJLD-IqFC_-50" value="" style="rounded=0;html=1;jettySize=auto;orthogonalLoop=1;fontSize=11;endArrow=block;endFill=0;endSize=8;strokeWidth=1;shadow=0;labelBackgroundColor=none;edgeStyle=orthogonalEdgeStyle;" edge="1" parent="WIyWlLk6GJQsqaUBKTNV-1" source="JPNgsBwNOuxJLD-IqFC_-51" target="JPNgsBwNOuxJLD-IqFC_-54">
          <mxGeometry relative="1" as="geometry" />
        </mxCell>
        <mxCell id="JPNgsBwNOuxJLD-IqFC_-51" value="&lt;font style=&quot;font-size: 18px;&quot;&gt;成品&lt;/font&gt;" style="rounded=1;whiteSpace=wrap;html=1;fontSize=12;glass=0;strokeWidth=1;shadow=0;" vertex="1" parent="WIyWlLk6GJQsqaUBKTNV-1">
          <mxGeometry x="230" y="810" width="120" height="40" as="geometry" />
        </mxCell>
        <mxCell id="JPNgsBwNOuxJLD-IqFC_-52" style="edgeStyle=orthogonalEdgeStyle;rounded=0;orthogonalLoop=1;jettySize=auto;html=1;exitX=1;exitY=0.5;exitDx=0;exitDy=0;entryX=0;entryY=0.5;entryDx=0;entryDy=0;" edge="1" parent="WIyWlLk6GJQsqaUBKTNV-1" source="JPNgsBwNOuxJLD-IqFC_-54" target="JPNgsBwNOuxJLD-IqFC_-56">
          <mxGeometry relative="1" as="geometry" />
        </mxCell>
        <mxCell id="JPNgsBwNOuxJLD-IqFC_-53" style="edgeStyle=orthogonalEdgeStyle;rounded=0;orthogonalLoop=1;jettySize=auto;html=1;entryX=0.5;entryY=0;entryDx=0;entryDy=0;" edge="1" parent="WIyWlLk6GJQsqaUBKTNV-1" source="JPNgsBwNOuxJLD-IqFC_-54" target="JPNgsBwNOuxJLD-IqFC_-58">
          <mxGeometry relative="1" as="geometry">
            <mxPoint x="290" y="1020" as="targetPoint" />
          </mxGeometry>
        </mxCell>
        <mxCell id="JPNgsBwNOuxJLD-IqFC_-54" value="&lt;font style=&quot;font-size: 18px;&quot;&gt;材料核验&lt;/font&gt;" style="rhombus;whiteSpace=wrap;html=1;shadow=0;fontFamily=Helvetica;fontSize=12;align=center;strokeWidth=1;spacing=6;spacingTop=-4;" vertex="1" parent="WIyWlLk6GJQsqaUBKTNV-1">
          <mxGeometry x="240" y="900" width="100" height="80" as="geometry" />
        </mxCell>
        <mxCell id="JPNgsBwNOuxJLD-IqFC_-55" style="edgeStyle=orthogonalEdgeStyle;rounded=0;orthogonalLoop=1;jettySize=auto;html=1;entryX=1;entryY=0.5;entryDx=0;entryDy=0;" edge="1" parent="WIyWlLk6GJQsqaUBKTNV-1" source="JPNgsBwNOuxJLD-IqFC_-56" target="JPNgsBwNOuxJLD-IqFC_-51">
          <mxGeometry relative="1" as="geometry">
            <mxPoint x="480" y="780" as="targetPoint" />
            <Array as="points">
              <mxPoint x="480" y="830" />
            </Array>
          </mxGeometry>
        </mxCell>
        <mxCell id="JPNgsBwNOuxJLD-IqFC_-56" value="&lt;font style=&quot;font-size: 18px;&quot;&gt;退回材料&lt;/font&gt;" style="rounded=1;whiteSpace=wrap;html=1;fontSize=12;glass=0;strokeWidth=1;shadow=0;" vertex="1" parent="WIyWlLk6GJQsqaUBKTNV-1">
          <mxGeometry x="420" y="920" width="120" height="40" as="geometry" />
        </mxCell>
        <mxCell id="JPNgsBwNOuxJLD-IqFC_-57" style="edgeStyle=orthogonalEdgeStyle;rounded=0;orthogonalLoop=1;jettySize=auto;html=1;" edge="1" parent="WIyWlLk6GJQsqaUBKTNV-1" source="JPNgsBwNOuxJLD-IqFC_-58" target="JPNgsBwNOuxJLD-IqFC_-64">
          <mxGeometry relative="1" as="geometry" />
        </mxCell>
        <mxCell id="JPNgsBwNOuxJLD-IqFC_-58" value="&lt;font style=&quot;font-size: 18px;&quot;&gt;成品入库&lt;/font&gt;" style="rounded=1;whiteSpace=wrap;html=1;fontSize=12;glass=0;strokeWidth=1;shadow=0;" vertex="1" parent="WIyWlLk6GJQsqaUBKTNV-1">
          <mxGeometry x="230" y="1030" width="120" height="40" as="geometry" />
        </mxCell>
        <mxCell id="JPNgsBwNOuxJLD-IqFC_-59" value="" style="ellipse;html=1;shape=startState;fillColor=#000000;strokeColor=#ff0000;" vertex="1" parent="WIyWlLk6GJQsqaUBKTNV-1">
          <mxGeometry x="275" y="730" width="30" height="30" as="geometry" />
        </mxCell>
        <mxCell id="JPNgsBwNOuxJLD-IqFC_-60" value="" style="edgeStyle=orthogonalEdgeStyle;html=1;verticalAlign=bottom;endArrow=open;endSize=8;strokeColor=#ff0000;rounded=0;entryX=0.5;entryY=0;entryDx=0;entryDy=0;" edge="1" parent="WIyWlLk6GJQsqaUBKTNV-1" source="JPNgsBwNOuxJLD-IqFC_-59" target="JPNgsBwNOuxJLD-IqFC_-51">
          <mxGeometry relative="1" as="geometry">
            <mxPoint x="290" y="790" as="targetPoint" />
          </mxGeometry>
        </mxCell>
        <mxCell id="JPNgsBwNOuxJLD-IqFC_-61" value="不合格" style="text;align=center;fontStyle=1;verticalAlign=middle;spacingLeft=3;spacingRight=3;strokeColor=none;rotatable=0;points=[[0,0.5],[1,0.5]];portConstraint=eastwest;html=1;" vertex="1" parent="WIyWlLk6GJQsqaUBKTNV-1">
          <mxGeometry x="320" y="920" width="80" height="26" as="geometry" />
        </mxCell>
        <mxCell id="JPNgsBwNOuxJLD-IqFC_-62" value="合格" style="text;align=center;fontStyle=1;verticalAlign=middle;spacingLeft=3;spacingRight=3;strokeColor=none;rotatable=0;points=[[0,0.5],[1,0.5]];portConstraint=eastwest;html=1;" vertex="1" parent="WIyWlLk6GJQsqaUBKTNV-1">
          <mxGeometry x="270" y="980" width="80" height="26" as="geometry" />
        </mxCell>
        <mxCell id="JPNgsBwNOuxJLD-IqFC_-63" style="edgeStyle=orthogonalEdgeStyle;rounded=0;orthogonalLoop=1;jettySize=auto;html=1;entryX=0.5;entryY=0;entryDx=0;entryDy=0;" edge="1" parent="WIyWlLk6GJQsqaUBKTNV-1" source="JPNgsBwNOuxJLD-IqFC_-64" target="JPNgsBwNOuxJLD-IqFC_-65">
          <mxGeometry relative="1" as="geometry" />
        </mxCell>
        <mxCell id="JPNgsBwNOuxJLD-IqFC_-64" value="&lt;font style=&quot;font-size: 18px;&quot;&gt;录入信息&lt;/font&gt;" style="rounded=1;whiteSpace=wrap;html=1;fontSize=12;glass=0;strokeWidth=1;shadow=0;" vertex="1" parent="WIyWlLk6GJQsqaUBKTNV-1">
          <mxGeometry x="230" y="1115" width="120" height="40" as="geometry" />
        </mxCell>
        <mxCell id="JPNgsBwNOuxJLD-IqFC_-65" value="" style="ellipse;html=1;shape=endState;fillColor=#000000;strokeColor=#ff0000;" vertex="1" parent="WIyWlLk6GJQsqaUBKTNV-1">
          <mxGeometry x="275" y="1200" width="30" height="30" as="geometry" />
        </mxCell>
        <mxCell id="JPNgsBwNOuxJLD-IqFC_-84" value="" style="rounded=0;html=1;jettySize=auto;orthogonalLoop=1;fontSize=11;endArrow=block;endFill=0;endSize=8;strokeWidth=1;shadow=0;labelBackgroundColor=none;edgeStyle=orthogonalEdgeStyle;" edge="1" parent="WIyWlLk6GJQsqaUBKTNV-1" source="JPNgsBwNOuxJLD-IqFC_-85" target="JPNgsBwNOuxJLD-IqFC_-88">
          <mxGeometry relative="1" as="geometry" />
        </mxCell>
        <mxCell id="JPNgsBwNOuxJLD-IqFC_-85" value="&lt;font style=&quot;font-size: 18px;&quot;&gt;原材料&lt;/font&gt;" style="rounded=1;whiteSpace=wrap;html=1;fontSize=12;glass=0;strokeWidth=1;shadow=0;" vertex="1" parent="WIyWlLk6GJQsqaUBKTNV-1">
          <mxGeometry x="680" y="840" width="120" height="40" as="geometry" />
        </mxCell>
        <mxCell id="JPNgsBwNOuxJLD-IqFC_-86" style="edgeStyle=orthogonalEdgeStyle;rounded=0;orthogonalLoop=1;jettySize=auto;html=1;exitX=1;exitY=0.5;exitDx=0;exitDy=0;entryX=0;entryY=0.5;entryDx=0;entryDy=0;" edge="1" parent="WIyWlLk6GJQsqaUBKTNV-1" source="JPNgsBwNOuxJLD-IqFC_-88" target="JPNgsBwNOuxJLD-IqFC_-90">
          <mxGeometry relative="1" as="geometry" />
        </mxCell>
        <mxCell id="JPNgsBwNOuxJLD-IqFC_-87" style="edgeStyle=orthogonalEdgeStyle;rounded=0;orthogonalLoop=1;jettySize=auto;html=1;entryX=0.5;entryY=0;entryDx=0;entryDy=0;" edge="1" parent="WIyWlLk6GJQsqaUBKTNV-1" source="JPNgsBwNOuxJLD-IqFC_-88" target="JPNgsBwNOuxJLD-IqFC_-93">
          <mxGeometry relative="1" as="geometry">
            <mxPoint x="740" y="1050" as="targetPoint" />
          </mxGeometry>
        </mxCell>
        <mxCell id="JPNgsBwNOuxJLD-IqFC_-88" value="&lt;font style=&quot;font-size: 18px;&quot;&gt;材料核验&lt;/font&gt;" style="rhombus;whiteSpace=wrap;html=1;shadow=0;fontFamily=Helvetica;fontSize=12;align=center;strokeWidth=1;spacing=6;spacingTop=-4;" vertex="1" parent="WIyWlLk6GJQsqaUBKTNV-1">
          <mxGeometry x="690" y="930" width="100" height="80" as="geometry" />
        </mxCell>
        <mxCell id="JPNgsBwNOuxJLD-IqFC_-89" style="edgeStyle=orthogonalEdgeStyle;rounded=0;orthogonalLoop=1;jettySize=auto;html=1;entryX=1;entryY=0.5;entryDx=0;entryDy=0;" edge="1" parent="WIyWlLk6GJQsqaUBKTNV-1" source="JPNgsBwNOuxJLD-IqFC_-90" target="JPNgsBwNOuxJLD-IqFC_-85">
          <mxGeometry relative="1" as="geometry">
            <mxPoint x="930" y="810" as="targetPoint" />
            <Array as="points">
              <mxPoint x="930" y="860" />
            </Array>
          </mxGeometry>
        </mxCell>
        <mxCell id="JPNgsBwNOuxJLD-IqFC_-90" value="&lt;font style=&quot;font-size: 18px;&quot;&gt;退回材料&lt;/font&gt;" style="rounded=1;whiteSpace=wrap;html=1;fontSize=12;glass=0;strokeWidth=1;shadow=0;" vertex="1" parent="WIyWlLk6GJQsqaUBKTNV-1">
          <mxGeometry x="870" y="950" width="120" height="40" as="geometry" />
        </mxCell>
        <mxCell id="JPNgsBwNOuxJLD-IqFC_-91" style="edgeStyle=orthogonalEdgeStyle;rounded=0;orthogonalLoop=1;jettySize=auto;html=1;" edge="1" parent="WIyWlLk6GJQsqaUBKTNV-1" source="JPNgsBwNOuxJLD-IqFC_-93" target="JPNgsBwNOuxJLD-IqFC_-99">
          <mxGeometry relative="1" as="geometry" />
        </mxCell>
        <mxCell id="JPNgsBwNOuxJLD-IqFC_-92" style="edgeStyle=orthogonalEdgeStyle;rounded=0;orthogonalLoop=1;jettySize=auto;html=1;" edge="1" parent="WIyWlLk6GJQsqaUBKTNV-1" source="JPNgsBwNOuxJLD-IqFC_-93" target="JPNgsBwNOuxJLD-IqFC_-101">
          <mxGeometry relative="1" as="geometry" />
        </mxCell>
        <mxCell id="JPNgsBwNOuxJLD-IqFC_-93" value="&lt;font style=&quot;font-size: 18px;&quot;&gt;原材料出库&lt;/font&gt;" style="rounded=1;whiteSpace=wrap;html=1;fontSize=12;glass=0;strokeWidth=1;shadow=0;" vertex="1" parent="WIyWlLk6GJQsqaUBKTNV-1">
          <mxGeometry x="680" y="1060" width="120" height="40" as="geometry" />
        </mxCell>
        <mxCell id="JPNgsBwNOuxJLD-IqFC_-94" value="" style="ellipse;html=1;shape=startState;fillColor=#000000;strokeColor=#ff0000;" vertex="1" parent="WIyWlLk6GJQsqaUBKTNV-1">
          <mxGeometry x="725" y="760" width="30" height="30" as="geometry" />
        </mxCell>
        <mxCell id="JPNgsBwNOuxJLD-IqFC_-95" value="" style="edgeStyle=orthogonalEdgeStyle;html=1;verticalAlign=bottom;endArrow=open;endSize=8;strokeColor=#ff0000;rounded=0;entryX=0.5;entryY=0;entryDx=0;entryDy=0;" edge="1" parent="WIyWlLk6GJQsqaUBKTNV-1" source="JPNgsBwNOuxJLD-IqFC_-94" target="JPNgsBwNOuxJLD-IqFC_-85">
          <mxGeometry relative="1" as="geometry">
            <mxPoint x="740" y="820" as="targetPoint" />
          </mxGeometry>
        </mxCell>
        <mxCell id="JPNgsBwNOuxJLD-IqFC_-96" value="不合格" style="text;align=center;fontStyle=1;verticalAlign=middle;spacingLeft=3;spacingRight=3;strokeColor=none;rotatable=0;points=[[0,0.5],[1,0.5]];portConstraint=eastwest;html=1;" vertex="1" parent="WIyWlLk6GJQsqaUBKTNV-1">
          <mxGeometry x="770" y="950" width="80" height="26" as="geometry" />
        </mxCell>
        <mxCell id="JPNgsBwNOuxJLD-IqFC_-97" value="合格" style="text;align=center;fontStyle=1;verticalAlign=middle;spacingLeft=3;spacingRight=3;strokeColor=none;rotatable=0;points=[[0,0.5],[1,0.5]];portConstraint=eastwest;html=1;" vertex="1" parent="WIyWlLk6GJQsqaUBKTNV-1">
          <mxGeometry x="720" y="1010" width="80" height="26" as="geometry" />
        </mxCell>
        <mxCell id="JPNgsBwNOuxJLD-IqFC_-98" style="edgeStyle=orthogonalEdgeStyle;rounded=0;orthogonalLoop=1;jettySize=auto;html=1;entryX=0.5;entryY=0;entryDx=0;entryDy=0;" edge="1" parent="WIyWlLk6GJQsqaUBKTNV-1" source="JPNgsBwNOuxJLD-IqFC_-99" target="JPNgsBwNOuxJLD-IqFC_-100">
          <mxGeometry relative="1" as="geometry" />
        </mxCell>
        <mxCell id="JPNgsBwNOuxJLD-IqFC_-99" value="&lt;font style=&quot;font-size: 18px;&quot;&gt;删除库存&lt;/font&gt;" style="rounded=1;whiteSpace=wrap;html=1;fontSize=12;glass=0;strokeWidth=1;shadow=0;" vertex="1" parent="WIyWlLk6GJQsqaUBKTNV-1">
          <mxGeometry x="680" y="1145" width="120" height="40" as="geometry" />
        </mxCell>
        <mxCell id="JPNgsBwNOuxJLD-IqFC_-100" value="" style="ellipse;html=1;shape=endState;fillColor=#000000;strokeColor=#ff0000;" vertex="1" parent="WIyWlLk6GJQsqaUBKTNV-1">
          <mxGeometry x="725" y="1230" width="30" height="30" as="geometry" />
        </mxCell>
        <mxCell id="JPNgsBwNOuxJLD-IqFC_-101" value="&lt;font style=&quot;font-size: 18px;&quot;&gt;采购商接收&lt;/font&gt;" style="rounded=1;whiteSpace=wrap;html=1;fontSize=12;glass=0;strokeWidth=1;shadow=0;" vertex="1" parent="WIyWlLk6GJQsqaUBKTNV-1">
          <mxGeometry x="870" y="1060" width="120" height="40" as="geometry" />
        </mxCell>
      </root>
    </mxGraphModel>
  </diagram>
</mxfile>
